 <svg  version="1.0" xmlns="http://www.w3.org/2000/svg"  width="225.000000pt" height="225.000000pt" viewBox="0 0 225.000000 225.000000"  preserveAspectRatio="xMidYMid meet">  <g transform="translate(0.000000,225.000000) scale(0.100000,-0.100000)" fill="#0b43ea" stroke="none"> <path d="M908 2151 c-90 -20 -162 -44 -235 -80 -23 -12 -46 -21 -51 -21 -5 0 -17 -9 -27 -20 -10 -11 -22 -20 -27 -20 -20 0 -107 -68 -184 -145 -88 -86 -167 -191 -202 -267 -12 -27 -31 -67 -42 -91 -11 -24 -20 -51 -20 -60 0 -10 -4 -25 -9 -35 -17 -33 -31 -163 -31 -288 0 -220 52 -396 169 -574 54 -83 165 -201 236 -250 19 -14 45 -33 58 -43 28 -24 207 -109 272 -130 171 -55 413 -58 604 -6 83 22 242 94 254 115 4 8 15 14 23 14 13 0 42 17 83 46 1 2 0 7 -4 13 -4 7 -14 3 -28 -9 -12 -12 -55 -40 -97 -63 -156 -87 -291 -125 -471 -134 -331 -15 -592 93 -835 347 -13 14 -22 31 -19 38 3 7 1 11 -4 7 -20 -12 -132 170 -169 275 -46 128 -57 199 -57 365 0 144 3 170 28 260 50 176 127 312 252 444 64 66 200 171 224 171 5 0 11 3 13 8 4 9 109 59 167 79 101 35 163 44 314 50 128 5 171 2 230 -11 269 -63 466 -184 617 -376 14 -18 30 -37 35 -44 43 -51 130 -241 156 -341 21 -78 24 -113 23 -255 0 -137 -4 -179 -22 -249 -12 -46 -22 -97 -22 -112 0 -17 -5 -29 -12 -29 -7 0 -29 -32 -48 -71 -19 -39 -40 -75 -47 -81 -7 -6 -13 -17 -13 -24 0 -8 -4 -14 -8 -14 -4 0 -16 -15 -27 -32 -10 -18 -54 -68 -98 -110 -43 -43 -74 -78 -67 -78 28 0 141 119 203 215 104 160 137 225 138 267 0 33 2 38 9 23 6 -15 8 -8 8 25 -1 25 7 79 16 120 18 86 20 187 5 280 -6 36 -12 79 -13 95 -1 17 -8 40 -14 52 -7 12 -12 30 -12 40 0 11 -12 44 -26 74 -48 102 -88 179 -94 179 -3 0 -14 16 -24 35 -11 19 -30 42 -42 50 -13 9 -24 21 -24 28 -1 20 -66 86 -137 137 -37 27 -74 54 -81 60 -44 39 -286 140 -335 140 -13 0 -27 4 -33 10 -5 5 -84 12 -174 14 -138 5 -179 2 -252 -13z"/> <path d="M963 2046 c-492 -94 -824 -529 -772 -1010 36 -336 234 -612 543 -756 76 -36 187 -71 217 -69 8 0 -22 10 -66 22 -270 75 -503 275 -612 527 -58 135 -68 188 -68 370 0 144 3 175 24 245 51 173 157 338 290 451 91 77 261 166 376 195 85 22 277 31 385 17 43 -5 49 -5 25 3 -51 17 -263 20 -342 5z"/> <path d="M995 2031 c-147 -25 -297 -85 -409 -165 -82 -59 -202 -187 -249 -267 -49 -84 -95 -205 -113 -297 -30 -158 -13 -360 44 -501 49 -123 134 -257 154 -245 7 5 8 2 3 -6 -10 -17 101 -123 196 -185 156 -103 316 -149 509 -149 233 1 421 69 589 214 139 121 225 248 283 420 31 92 32 101 33 265 0 150 -3 180 -23 250 -29 98 -101 244 -150 305 -70 86 -124 140 -136 133 -6 -3 -8 -3 -4 2 12 12 -97 91 -186 136 -119 59 -238 88 -376 94 -63 2 -137 0 -165 -4z m274 -61 c436 -71 753 -485 711 -928 -29 -301 -200 -547 -477 -686 -204 -102 -471 -114 -684 -31 -294 116 -499 370 -545 677 -53 350 116 691 427 867 71 39 204 89 272 100 74 12 221 13 296 1z"/> <path d="M1101 1875 l-2 -75 39 0 c50 0 82 32 82 83 0 44 -28 67 -81 67 l-36 0 -2 -75z m79 -16 c-13 -23 -45 -26 -36 -3 3 9 6 28 6 42 l1 27 19 -23 c15 -18 17 -28 10 -43z"/> <path d="M1239 1867 l-15 -75 27 -6 c15 -3 38 -8 53 -12 38 -9 35 21 -4 35 -43 14 -39 34 5 25 31 -6 35 -4 35 16 0 19 -4 22 -29 18 -23 -3 -27 -1 -23 14 5 21 4 21 35 9 21 -8 26 -6 30 10 6 23 3 25 -53 34 l-45 7 -16 -75z"/> <path d="M855 1908 c-16 -6 -32 -12 -33 -14 -7 -5 42 -144 50 -144 24 0 79 31 93 54 31 47 -5 117 -60 115 -11 0 -33 -5 -50 -11z m70 -68 c0 -49 -28 -53 -42 -6 -12 39 -8 48 22 44 16 -2 20 -10 20 -38z"/> <path d="M1014 1879 c-3 -6 0 -15 7 -20 22 -14 29 -11 29 11 0 21 -24 27 -36 9z"/> <path d="M1472 1793 l-40 -68 41 -23 c52 -29 84 -21 44 11 l-28 22 31 49 c17 26 30 49 28 50 -2 1 -11 7 -20 14 -14 12 -21 5 -56 -55z"/> <path d="M703 1842 c-10 -6 -9 -25 4 -88 9 -43 18 -81 20 -83 6 -9 33 23 33 39 0 21 23 33 38 18 7 -7 17 -6 33 3 23 12 22 13 -36 65 -61 55 -71 59 -92 46z"/> <path d="M1385 1830 c-8 -14 3 -30 21 -30 8 0 14 9 14 20 0 21 -24 28 -35 10z"/> <path d="M962 1750 c-227 -60 -408 -241 -468 -470 -22 -85 -22 -226 0 -310 57 -215 226 -392 436 -460 91 -29 235 -36 330 -16 235 49 437 242 495 471 18 70 20 222 4 297 -17 79 -83 214 -136 276 -161 188 -427 273 -661 212z m312 -40 c115 -29 190 -73 279 -163 63 -62 87 -95 117 -160 52 -112 64 -174 58 -298 -4 -79 -12 -120 -31 -171 -74 -192 -220 -323 -422 -379 -67 -18 -97 -21 -180 -16 -166 9 -280 60 -403 183 -57 56 -81 90 -112 156 -49 104 -61 158 -61 267 1 279 184 511 461 585 80 21 202 20 294 -4z"/> <path d="M1022 1668 c-7 -7 -12 -25 -12 -42 0 -27 1 -28 13 -11 10 12 16 14 21 7 4 -7 14 -12 21 -12 12 0 12 6 -2 35 -18 38 -23 41 -41 23z"/> <path d="M1206 1671 c-4 -5 -3 -17 0 -28 4 -13 3 -14 -4 -5 -7 11 -10 10 -16 -3 -9 -24 -8 -25 10 -18 9 3 20 0 24 -8 14 -22 23 -2 16 36 -7 34 -19 45 -30 26z"/> <path d="M950 1648 c0 -30 13 -58 26 -58 17 0 17 10 4 44 -10 27 -30 36 -30 14z"/> <path d="M1282 1622 c-6 -20 -10 -37 -9 -38 1 -1 16 -5 32 -9 25 -5 27 -4 12 5 -13 8 -15 15 -7 30 14 25 13 37 -4 43 -9 4 -17 -7 -24 -31z"/> <path d="M911 1618 c9 -19 9 -21 -2 -10 -13 12 -49 17 -49 7 0 -15 32 -66 38 -61 3 4 0 12 -6 18 -21 21 -13 29 13 12 14 -9 28 -14 32 -11 8 8 -17 67 -29 67 -5 0 -3 -10 3 -22z"/> <path d="M1370 1585 c-13 -14 -19 -25 -13 -25 6 0 14 6 16 13 3 6 6 -1 6 -17 1 -23 4 -27 13 -18 17 17 31 15 25 -3 -12 -29 13 -25 28 6 19 36 13 49 -15 31 -18 -11 -20 -9 -20 13 0 32 -10 32 -40 0z"/> <path d="M806 1581 c-4 -5 -3 -17 0 -26 6 -15 4 -16 -14 -6 -29 15 -37 -2 -17 -36 9 -16 14 -20 11 -10 -5 14 -1 16 20 11 24 -6 26 -5 19 17 -7 21 -6 22 8 11 28 -23 41 -3 16 24 -24 26 -35 29 -43 15z"/> <path d="M1483 1512 c-36 -17 -43 -31 -15 -28 11 0 16 -5 14 -16 -5 -33 17 -28 34 7 21 45 9 58 -33 37z"/> <path d="M705 1493 c-20 -20 -19 -40 4 -53 23 -12 47 -5 55 16 14 36 -32 65 -59 37z"/> <path d="M1085 1396 c-71 -24 -144 -66 -150 -86 -4 -11 -23 -29 -43 -40 -20 -11 -50 -31 -67 -44 -27 -24 -28 -26 -12 -43 10 -12 14 -27 10 -42 -3 -14 -1 -26 6 -31 10 -6 10 -12 -1 -29 -11 -18 -11 -23 0 -30 8 -5 11 -18 8 -32 -9 -36 13 -55 68 -61 62 -7 76 -22 79 -87 2 -52 1 -54 -33 -73 -47 -26 -64 -44 -56 -57 4 -6 18 -8 30 -5 20 5 24 1 29 -30 3 -20 13 -44 23 -53 26 -26 65 -44 78 -36 6 4 16 8 21 8 29 3 67 28 87 59 13 20 29 36 36 36 8 0 16 9 19 20 7 27 83 30 83 3 0 -14 4 -13 25 7 15 14 31 21 45 17 11 -3 20 -1 20 5 0 26 -25 48 -72 64 -72 23 -95 49 -104 111 l-6 51 43 27 c24 15 59 41 76 58 33 31 59 89 49 106 -3 5 3 7 14 4 27 -7 25 -27 -9 -99 -44 -93 -53 -185 -16 -154 9 8 14 6 19 -5 3 -8 12 -15 21 -15 8 0 15 -6 15 -13 0 -7 7 -22 15 -33 14 -17 15 -14 9 39 -4 38 -2 57 5 57 6 0 11 -8 11 -19 0 -10 7 -24 16 -32 13 -11 14 -9 9 14 -5 18 -3 27 5 27 7 0 9 8 5 20 -4 12 -1 52 5 89 8 51 9 79 0 110 -13 48 -60 105 -106 129 -18 9 -59 34 -92 55 -70 43 -150 56 -217 33z m83 -28 c28 2 33 1 22 -7 -8 -6 -10 -11 -4 -11 6 0 17 7 24 15 7 8 18 15 24 14 7 0 6 -2 -1 -6 -7 -2 -13 -11 -13 -19 0 -8 -7 -14 -15 -14 -8 0 -15 -4 -15 -10 0 -5 7 -7 15 -3 10 3 15 1 13 -7 -2 -7 2 -14 9 -17 8 -3 10 6 7 26 -5 33 5 39 28 19 14 -13 33 -20 55 -21 9 0 10 -4 2 -14 -9 -10 -8 -13 3 -13 29 0 56 -81 34 -103 -8 -7 -15 -22 -18 -33 -2 -12 -13 -20 -30 -22 -22 -3 -25 -6 -15 -16 6 -8 19 -11 27 -9 13 4 13 3 0 -5 -8 -6 -18 -8 -22 -6 -4 3 -8 -3 -9 -13 0 -10 -3 -13 -5 -7 -3 7 -17 0 -35 -17 -17 -16 -35 -26 -40 -23 -5 3 -8 0 -7 -8 2 -7 -4 -12 -12 -11 -10 2 -16 -7 -17 -27 -1 -17 2 -30 6 -30 14 0 30 -99 17 -104 -6 -2 -1 -5 11 -5 20 -1 19 -4 -14 -36 -34 -33 -35 -35 -12 -32 15 3 23 10 21 20 -1 8 2 18 8 22 6 4 7 -1 4 -12 -5 -17 -5 -17 9 0 9 10 18 14 21 8 3 -5 0 -12 -6 -15 -7 -4 -4 -5 7 -3 15 3 21 -2 22 -15 2 -19 1 -19 -23 -3 -24 15 -25 15 -22 -2 2 -12 -4 -18 -17 -19 -34 -2 -65 14 -59 30 4 11 0 13 -16 9 -14 -4 -18 -8 -10 -13 8 -5 8 -9 -3 -13 -10 -4 -14 1 -12 16 1 12 4 24 5 27 2 3 4 17 4 31 1 18 -3 25 -11 22 -7 -3 -13 2 -13 11 0 19 -16 21 -24 4 -4 -8 -8 -9 -11 -3 -18 34 -25 40 -34 27 -6 -11 -10 -9 -14 7 -3 12 -13 21 -22 21 -10 0 -13 5 -9 12 5 8 2 9 -12 4 -10 -4 -15 -4 -11 0 8 8 -11 34 -25 34 -5 0 -6 -6 -2 -12 5 -10 4 -10 -6 -1 -10 9 -10 15 -2 26 7 8 8 18 4 22 -4 5 0 6 8 3 11 -4 15 1 15 17 0 13 -2 23 -5 22 -16 -4 -50 31 -50 53 0 28 -13 53 -26 50 -5 -1 -10 4 -13 11 -2 8 2 10 13 6 9 -4 16 -2 16 3 0 6 6 10 14 10 8 0 16 6 19 13 3 9 9 7 24 -5 11 -10 29 -18 41 -18 17 0 20 -5 16 -27 -3 -16 -10 -32 -15 -38 -7 -7 -8 -5 -4 6 5 12 -2 18 -24 22 -17 4 -34 6 -37 6 -4 0 -11 5 -15 13 -12 17 1 -51 13 -76 8 -15 12 -16 19 -5 8 12 11 12 19 -1 8 -12 9 -10 7 9 -4 26 -27 42 -27 19 0 -18 -20 12 -20 31 0 9 11 5 34 -12 l34 -26 25 30 c14 17 30 28 36 24 6 -3 9 -10 6 -15 -3 -4 4 -6 16 -3 16 5 20 2 17 -13 -2 -11 6 -23 22 -31 14 -7 21 -13 15 -13 -5 0 -3 -5 5 -11 12 -9 11 -10 -7 -6 -13 3 -23 1 -23 -5 0 -5 -4 -7 -8 -4 -5 3 -9 -8 -9 -25 0 -25 3 -28 20 -23 14 4 17 3 12 -6 -5 -8 -4 -11 3 -6 5 3 13 0 16 -6 3 -7 4 -5 3 6 -1 12 9 24 30 35 18 9 33 20 33 24 0 5 -5 5 -12 1 -8 -5 -9 -2 -4 12 5 10 8 26 9 34 0 8 3 20 8 25 12 16 -3 30 -31 32 -14 0 -34 4 -45 8 -14 5 -16 4 -7 -2 10 -8 10 -12 -3 -23 -13 -11 -19 -7 -17 11 1 4 -7 5 -16 2 -12 -3 -18 2 -19 14 -1 10 -4 34 -8 53 -4 26 -3 31 4 20 9 -13 11 -12 11 4 0 11 5 16 13 13 7 -3 13 3 13 13 0 15 -11 20 -48 25 -26 4 -48 11 -48 16 0 13 19 11 73 -5 26 -8 49 -11 52 -6 5 9 -29 20 -62 20 -13 0 -23 5 -23 11 0 11 23 8 67 -8 10 -3 15 -3 11 2 -4 4 -2 15 4 23 7 8 14 10 15 5 2 -5 20 -7 41 -5z m-160 -71 c7 -5 11 -11 9 -13 -7 -7 -67 18 -67 28 0 11 38 1 58 -15z m-18 -43 c6 -14 15 -22 20 -19 6 4 7 12 3 18 -5 9 -2 8 8 0 18 -15 18 -55 1 -61 -7 -2 -12 1 -12 7 0 6 -13 24 -30 41 -34 35 -36 40 -15 40 9 0 20 -12 25 -26z m-116 -26 c-16 -12 -32 -27 -36 -32 -4 -6 -10 -8 -13 -4 -7 7 52 58 67 58 6 0 -2 -10 -18 -22z m296 -79 c0 -4 -12 -6 -27 -5 -36 5 -35 4 -29 15 7 10 56 2 56 -10z m255 -46 c-15 -34 -13 -53 5 -53 5 0 7 6 4 13 -2 7 2 30 10 52 12 32 15 35 15 15 0 -14 -4 -34 -9 -45 -5 -13 -3 -26 7 -37 8 -9 13 -23 10 -30 -3 -8 -9 -4 -16 12 -11 24 -11 24 -7 -7 7 -43 -10 -52 -19 -11 -10 46 -17 55 -27 32 -7 -15 -7 -14 -4 6 8 44 30 99 38 94 4 -3 1 -21 -7 -41z m-273 25 c10 0 21 -4 24 -10 5 -7 2 -8 -6 -3 -10 6 -12 4 -7 -9 5 -11 3 -15 -5 -10 -8 5 -9 2 -5 -10 4 -10 3 -15 -3 -11 -6 3 -10 14 -10 23 0 11 -8 18 -21 19 -12 1 -27 7 -33 14 -8 9 -4 10 19 4 17 -4 38 -7 47 -7z m-235 -81 c-6 -12 -14 -24 -17 -27 -3 -3 -5 -12 -5 -20 0 -20 -41 -25 -48 -6 -4 9 -2 18 3 21 6 4 10 -1 10 -10 0 -9 6 -15 13 -12 6 2 12 18 12 35 0 19 5 32 12 32 7 0 13 5 13 11 0 5 4 7 10 4 6 -4 5 -14 -3 -28z m124 -173 c10 -12 10 -20 1 -35 -7 -10 -12 -28 -12 -39 0 -11 -4 -20 -10 -20 -5 0 -10 25 -10 55 0 57 8 67 31 39z m44 -17 c1 -7 7 -11 15 -9 10 1 8 -4 -5 -15 -11 -10 -26 -31 -33 -47 -7 -16 -15 -26 -19 -23 -5 6 13 90 25 110 5 10 17 -1 17 -16z m-75 -103 c0 -8 4 -13 9 -10 4 3 16 -3 25 -13 16 -18 18 -18 46 10 16 16 33 29 40 29 17 0 22 -24 11 -53 -6 -14 -7 -27 -3 -30 4 -2 1 -2 -5 -1 -7 2 -13 -2 -13 -9 0 -7 -12 -14 -27 -15 -15 -1 -31 -9 -36 -17 -4 -8 -13 -15 -20 -15 -9 0 -9 2 0 8 8 5 2 12 -18 21 -33 15 -48 54 -30 83 6 10 9 24 5 30 -4 7 -3 8 4 4 7 -4 12 -14 12 -22z"/> <path d="M1116 971 c-4 -5 4 -7 16 -3 21 5 22 4 8 -13 -14 -16 -13 -17 5 -12 18 6 20 3 19 -29 -1 -23 2 -34 10 -31 12 5 10 51 -5 79 -10 19 -44 25 -53 9z"/> <path d="M1086 711 c-23 -25 -13 -45 14 -28 20 12 28 47 12 47 -5 0 -17 -9 -26 -19z"/> <path d="M1575 1403 c-11 -3 -24 -10 -30 -15 -7 -7 -2 -8 15 -3 20 6 23 5 13 -6 -22 -22 -15 -37 15 -32 l27 5 -24 -20 c-14 -11 -19 -22 -14 -25 12 -7 63 29 63 44 0 5 -9 9 -20 9 -21 0 -27 15 -10 25 6 4 8 11 5 16 -6 9 -8 10 -40 2z"/> <path d="M609 1353 c-11 -30 -5 -39 34 -48 17 -5 27 -3 27 4 0 6 -4 11 -10 11 -5 0 -10 5 -10 10 0 6 9 10 19 10 10 0 22 7 25 16 5 13 2 15 -14 11 -11 -3 -23 -1 -26 4 -11 18 -35 8 -45 -18z"/> <path d="M587 1284 c-18 -18 -6 -42 25 -48 36 -7 33 -8 42 22 5 13 3 22 -3 22 -6 0 -11 -4 -11 -10 0 -5 -5 -10 -11 -10 -5 0 -7 5 -4 10 3 6 1 10 -4 10 -6 0 -11 -6 -12 -12 0 -7 -4 -5 -8 5 -3 10 -10 15 -14 11z"/> <path d="M1590 1280 c0 -5 5 -10 11 -10 7 0 9 -10 5 -25 -7 -29 -5 -30 34 -10 39 20 38 41 -1 49 -42 8 -49 8 -49 -4z"/> <path d="M1660 1216 c0 -8 -10 -16 -22 -18 -35 -5 -34 -28 1 -28 17 0 31 -5 31 -12 0 -7 3 -8 9 -2 11 11 2 74 -10 74 -5 0 -9 -6 -9 -14z"/> <path d="M568 1190 c-4 -29 -3 -30 34 -30 21 0 38 5 38 10 0 6 -7 10 -15 10 -8 0 -14 3 -14 8 4 21 -3 32 -20 32 -13 0 -20 -9 -23 -30z"/> <path d="M588 1121 c40 -10 52 -21 26 -22 -42 -3 -47 -4 -51 -16 -3 -9 5 -13 24 -13 37 0 56 13 51 36 -2 14 -13 19 -43 21 l-40 2 33 -8z"/> <path d="M1613 1110 c-1 -11 2 -22 8 -25 5 -4 9 2 9 12 1 17 2 16 12 -2 11 -19 11 -19 19 0 7 17 8 18 8 3 1 -28 21 -21 21 7 0 22 -4 25 -38 25 -30 0 -38 -4 -39 -20z"/> <path d="M1610 1061 c0 -5 6 -12 13 -15 8 -3 7 -8 -5 -16 -27 -17 -21 -26 17 -27 26 -1 38 4 46 19 6 11 7 24 2 28 -13 12 -73 21 -73 11z"/> <path d="M593 1034 c-5 -13 -8 -13 -15 -2 -7 10 -8 8 -6 -6 2 -10 13 -22 26 -27 19 -7 22 -5 23 19 0 23 2 24 8 8 5 -14 10 -16 15 -8 4 7 4 17 1 22 -10 16 -45 12 -52 -6z"/> <path d="M1567 913 c-4 -3 -7 -15 -7 -27 0 -19 0 -19 14 -1 14 19 15 19 27 -8 12 -27 14 -27 26 -11 18 25 18 50 -1 35 -10 -9 -15 -8 -20 4 -6 15 -28 20 -39 8z"/> <path d="M645 880 c-26 -28 -13 -35 24 -12 26 16 29 21 16 26 -22 8 -19 9 -40 -14z"/> <path d="M703 848 c5 -13 0 -19 -19 -24 -18 -5 -22 -10 -15 -17 7 -7 15 -6 25 3 9 7 23 10 31 6 22 -8 18 8 -7 30 -19 17 -21 17 -15 2z"/> <path d="M1523 835 c-3 -9 -3 -19 1 -22 3 -4 6 -1 6 7 0 10 3 10 15 0 8 -7 15 -19 15 -26 0 -17 16 -18 23 -1 6 16 4 33 -5 30 -3 -1 -12 4 -18 12 -16 19 -29 19 -37 0z"/> <path d="M744 783 c1 -13 -5 -17 -21 -16 -29 3 -29 -8 -1 -33 18 -16 20 -16 15 -2 -4 11 1 18 14 21 22 6 27 47 5 47 -8 0 -13 -8 -12 -17z"/> <path d="M1464 775 c-10 -26 4 -47 26 -40 13 4 20 2 20 -6 0 -10 3 -10 12 -1 9 9 9 18 0 37 -13 28 -49 34 -58 10z"/> <path d="M775 724 c-16 -25 -16 -27 0 -43 15 -15 18 -14 36 8 11 13 18 31 17 40 -5 26 -34 24 -53 -5z"/> <path d="M1407 717 c-5 -14 25 -47 43 -47 17 0 11 15 -14 39 -18 17 -25 19 -29 8z"/> <path d="M558 1731 l-33 -30 55 -55 54 -56 27 26 c37 35 41 68 15 107 -30 45 -73 48 -118 8z m84 -28 c20 -18 23 -38 7 -48 -12 -8 -59 33 -59 52 0 18 30 16 52 -4z"/> <path d="M1610 1705 c-30 -19 -61 -35 -69 -35 -11 0 -10 -5 4 -20 13 -14 22 -17 30 -10 15 13 29 -3 39 -42 3 -16 10 -28 14 -28 5 0 22 34 40 76 44 106 34 117 -58 59z"/> <path d="M472 1648 c-19 -19 -16 -24 48 -73 50 -38 63 -45 75 -35 8 7 15 16 15 20 0 9 -109 100 -119 100 -4 0 -12 -5 -19 -12z"/> <path d="M1702 1583 c2 -10 10 -18 18 -18 8 0 16 8 18 18 2 12 -3 17 -18 17 -15 0 -20 -5 -18 -17z"/> <path d="M408 1543 c-28 -32 -31 -60 -9 -82 27 -27 34 -27 70 9 35 35 50 25 20 -14 -17 -22 -19 -29 -9 -41 16 -19 32 -7 54 40 31 65 -27 103 -81 53 -20 -19 -23 -19 -23 -4 0 9 7 19 15 22 12 5 13 10 4 20 -15 18 -23 18 -41 -3z"/> <path d="M1767 1526 c-54 -25 -67 -35 -65 -51 4 -21 5 -21 51 -10 36 9 37 -17 2 -33 -22 -10 -24 -15 -15 -31 10 -20 11 -20 58 2 84 40 91 45 85 67 -6 24 -7 24 -39 3 -22 -14 -27 -14 -35 -2 -8 14 7 33 35 42 7 2 7 10 1 24 -10 19 -11 19 -78 -11z"/> <path d="M337 1383 c-8 -16 -17 -40 -21 -55 -6 -25 -3 -27 64 -47 39 -12 75 -19 80 -16 20 12 9 34 -21 40 -35 8 -28 22 15 27 19 2 32 11 37 26 8 22 7 23 -27 16 -29 -5 -38 -3 -50 15 -22 30 -60 27 -77 -6z"/> <path d="M1757 1350 c3 -11 11 -20 19 -20 20 0 39 -39 25 -53 -11 -11 -16 -57 -6 -57 3 0 24 15 48 33 24 17 56 41 70 52 18 13 24 24 19 33 -9 14 -23 17 -119 26 -58 6 -61 6 -56 -14z"/> <path d="M294 1205 c-3 -25 -5 -47 -3 -49 2 -2 38 -6 81 -9 l76 -7 4 45 c2 35 0 45 -14 48 -12 4 -18 -2 -20 -21 -4 -38 -28 -40 -28 -3 0 38 -27 43 -36 6 -8 -32 -28 -33 -22 -1 4 21 -7 36 -27 36 -2 0 -7 -20 -11 -45z"/> <path d="M1833 1213 c-32 -4 -33 -6 -33 -48 0 -54 22 -80 59 -70 14 3 38 6 53 5 34 0 50 27 46 78 -3 37 -4 37 -48 38 -25 1 -60 -1 -77 -3z m27 -62 c0 -26 -16 -35 -24 -15 -10 25 -7 34 9 34 8 0 15 -9 15 -19z"/> <path d="M292 1109 c2 -19 13 -26 53 -37 l49 -14 -47 -25 c-34 -17 -47 -29 -45 -41 5 -20 15 -18 91 16 45 21 57 31 57 49 0 19 -10 25 -62 42 -35 10 -71 23 -81 27 -16 6 -18 3 -15 -17z"/> <path d="M1800 1061 c0 -11 5 -23 10 -26 17 -11 11 -42 -10 -48 -12 -3 -20 -14 -20 -26 0 -22 -1 -22 115 3 75 17 71 37 -14 81 -39 19 -73 35 -76 35 -3 0 -5 -9 -5 -19z"/> <path d="M389 957 c-72 -18 -76 -20 -71 -44 4 -20 9 -23 26 -19 11 4 45 13 75 21 30 8 55 16 56 17 1 2 -1 12 -4 24 l-6 20 -76 -19z"/> <path d="M1766 914 c-9 -22 0 -31 34 -39 42 -9 37 -21 -12 -28 -23 -3 -48 -14 -55 -23 -11 -16 -6 -21 55 -50 59 -28 69 -30 82 -17 13 13 13 16 -4 29 -11 8 -25 14 -32 14 -6 0 -14 6 -17 13 -3 9 6 11 33 9 25 -3 42 2 53 13 24 24 21 31 -20 48 -21 9 -54 22 -75 31 -33 14 -37 14 -42 0z"/> <path d="M408 867 c-52 -24 -66 -35 -59 -46 6 -9 18 -11 35 -7 25 6 26 5 16 -13 -5 -11 -14 -23 -20 -26 -12 -7 -1 -35 14 -35 6 0 39 13 73 30 47 21 61 33 57 45 -7 18 -25 20 -42 3 -22 -22 -25 2 -3 25 13 15 19 30 15 40 -8 22 -7 22 -86 -16z"/> <path d="M1709 778 c-1 -7 -2 -26 -3 -43 -1 -25 -6 -31 -28 -33 -28 -3 -46 -30 -25 -37 17 -6 134 -35 140 -35 3 0 8 7 11 16 3 9 -12 41 -37 79 -42 64 -56 76 -58 53z"/> <path d="M463 728 c-43 -28 -50 -36 -42 -50 14 -25 25 -23 69 12 21 17 43 30 49 30 23 0 9 -22 -34 -52 -49 -35 -52 -40 -30 -58 12 -10 22 -6 57 21 24 19 46 38 50 44 23 31 -8 85 -48 85 -11 0 -43 -15 -71 -32z"/> <path d="M1664 619 c-3 -6 -2 -15 2 -19 12 -12 38 5 30 19 -9 14 -23 14 -32 0z"/> <path d="M575 600 c-4 -7 -3 -16 3 -22 14 -14 45 -2 40 15 -6 16 -34 21 -43 7z"/> <path d="M850 470 c-31 -31 -30 -95 2 -122 20 -18 73 -25 81 -10 10 16 -9 37 -33 37 -19 0 -26 6 -28 26 -4 34 23 57 48 41 14 -9 21 -8 31 4 10 12 8 17 -7 29 -27 21 -71 18 -94 -5z"/> <path d="M1296 448 c-14 -79 -18 -138 -10 -138 15 0 30 14 37 33 7 18 42 23 52 7 8 -12 16 -12 34 -1 11 7 4 22 -33 70 -26 34 -53 61 -60 61 -8 0 -16 -15 -20 -32z"/> <path d="M777 463 c-14 -13 -6 -33 13 -33 13 0 20 7 20 20 0 19 -20 27 -33 13z"/> <path d="M986 444 c-11 -28 -6 -120 6 -132 13 -13 57 -16 75 -4 18 11 33 58 33 103 0 32 -4 39 -19 39 -16 0 -21 -10 -28 -52 -4 -29 -14 -53 -22 -56 -11 -4 -13 7 -7 57 6 56 5 61 -12 61 -11 0 -23 -7 -26 -16z"/> <path d="M1131 373 c4 -43 8 -78 8 -78 1 0 21 1 46 3 57 5 84 36 64 74 -7 13 -13 34 -13 48 -1 23 -5 25 -56 28 l-56 3 7 -78z m81 -31 c4 -15 1 -18 -18 -14 -13 2 -24 11 -24 18 0 21 37 17 42 -4z"/> <path d="M1400 435 c0 -8 9 -15 20 -15 11 0 20 7 20 15 0 8 -9 15 -20 15 -11 0 -20 -7 -20 -15z"/> <path d="M1405 2007 c192 -65 368 -194 480 -351 49 -69 111 -199 135 -286 27 -94 38 -306 21 -406 -45 -260 -210 -496 -442 -634 -102 -61 -191 -91 -359 -124 -14 -3 2 -3 34 0 75 6 221 54 306 101 219 121 384 328 450 565 65 232 39 470 -75 685 -80 152 -190 271 -330 358 -75 47 -203 102 -257 111 -18 3 -1 -6 37 -19z"/> <path d="M1010 199 c45 -8 207 -12 199 -5 -2 2 -58 5 -124 8 -74 3 -103 2 -75 -3z"/> </g> </svg> 